// Clean electric guitar.
// Muted notes.
<group> hikey=e5 seq_length=2
<region> sample=2_E_m1.wav pitch_keycenter=e2 lokey=c2 hikey=e2
<region> sample=2_E_m2.wav seq_position=2 pitch_keycenter=e2 lokey=c2 hikey=e2
<region> sample=2_F_m1.wav key=f2
<region> sample=2_F_m2.wav seq_position=2 key=f2
<region> sample=2_Gb_m1.wav key=f#2
<region> sample=2_Gb_m2.wav seq_position=2 key=f#2
<region> sample=2_G_m1.wav key=g2
<region> sample=2_G_m2.wav seq_position=2 key=g2
<region> sample=2_Ab_m1.wav key=g#2
<region> sample=2_Ab_m2.wav seq_position=2 key=g#2
<region> sample=2_A_m1.wav key=a2
<region> sample=2_A_m2.wav seq_position=2 key=a2
<region> sample=2_Bb_m1.wav key=a#2
<region> sample=2_Bb_m2.wav seq_position=2 key=a#2
<region> sample=2_B_m1.wav key=b2
<region> sample=2_B_m2.wav seq_position=2 key=b2
<region> sample=3_C_m1.wav key=c3
<region> sample=3_C_m2.wav seq_position=2 key=c3
<region> sample=3_Db_m1.wav key=c#3
<region> sample=3_Db_m2.wav seq_position=2 key=c#3
<region> sample=3_D_m1.wav key=d3
<region> sample=3_D_m2.wav seq_position=2 key=d3
<region> sample=3_Eb_m1.wav key=d#3
<region> sample=3_Eb_m2.wav seq_position=2 key=d#3
<region> sample=3_E_m1.wav key=e3
<region> sample=3_E_m2.wav seq_position=2 key=e3
<region> sample=3_F_m1.wav key=f3
<region> sample=3_F_m2.wav seq_position=2 key=f3
<region> sample=3_Gb_m1.wav key=f#3
<region> sample=3_Gb_m2.wav seq_position=2 key=f#3
<region> sample=3_G_m1.wav key=g3
<region> sample=3_G_m2.wav seq_position=2 key=g3
<region> sample=3_Ab_m1.wav key=g#3
<region> sample=3_Ab_m2.wav seq_position=2 key=g#3
<region> sample=3_A_m1.wav key=a3
<region> sample=3_A_m2.wav seq_position=2 key=a3
<region> sample=3_Bb_m1.wav key=a#3
<region> sample=3_Bb_m2.wav seq_position=2 key=a#3
<region> sample=3_B_m1.wav key=b3
<region> sample=3_B_m2.wav seq_position=2 key=b3
<region> sample=4_C_m1.wav key=c4
<region> sample=4_C_m2.wav seq_position=2 key=c4
<region> sample=4_Db_m1.wav key=c#4
<region> sample=4_Db_m2.wav seq_position=2 key=c#4
<region> sample=4_D_m1.wav key=d4
<region> sample=4_D_m2.wav seq_position=2 key=d4
<region> sample=4_Eb_m1.wav key=d#4
<region> sample=4_Eb_m2.wav seq_position=2 key=d#4
<region> sample=4_E_m1.wav key=e4
<region> sample=4_E_m2.wav seq_position=2 key=e4
<region> sample=4_F_m1.wav key=f4
<region> sample=4_F_m2.wav seq_position=2 key=f4
<region> sample=4_Gb_m1.wav key=f#4
<region> sample=4_Gb_m2.wav seq_position=2 key=f#4
<region> sample=4_G_m1.wav key=g4
<region> sample=4_G_m2.wav seq_position=2 key=g4
<region> sample=4_Ab_m1.wav key=g#4
<region> sample=4_Ab_m2.wav seq_position=2 key=g#4
<region> sample=4_A_m1.wav key=a4
<region> sample=4_A_m2.wav seq_position=2 key=a4
<region> sample=4_Bb_m1.wav key=a#4
<region> sample=4_Bb_m2.wav seq_position=2 key=a#4
<region> sample=4_B_m1.wav key=b4
<region> sample=4_B_m2.wav seq_position=2 key=b4
<region> sample=5_C_m1.wav key=c5
<region> sample=5_C_m2.wav seq_position=2 key=c5
<region> sample=5_Db_m1.wav key=c#5
<region> sample=5_Db_m2.wav seq_position=2 key=c#5
<region> sample=5_D_m1.wav key=d5
<region> sample=5_D_m2.wav seq_position=2 key=d5
<region> sample=5_Eb_m1.wav key=d#5
<region> sample=5_Eb_m2.wav seq_position=2 key=d#5
<region> sample=5_E_m1.wav key=e5
<region> sample=5_E_m2.wav seq_position=2 key=e5
<group> lokey=f5
<region> sample=5_Gb_m1.wav pitch_keycenter=f#5 lokey=f5 hikey=f#5
<region> sample=5_Ab_m1.wav pitch_keycenter=g#5 lokey=g5 hikey=g#5
<region> sample=5_Bb_m1.wav pitch_keycenter=a#5 lokey=a5 hikey=a#5
<region> sample=6_C_m1.wav pitch_keycenter=c6 lokey=b5